<?xml version="1.0" encoding="utf-8"?>
<!-- Generator: Adobe Illustrator 22.1.0, SVG Export Plug-In . SVG Version: 6.00 Build 0)  -->
<svg version="1.1" id="embassy-15" xmlns="http://www.w3.org/2000/svg" xmlns:xlink="http://www.w3.org/1999/xlink" x="0px" y="0px"
	 viewBox="0 0 15 15" style="enable-background:new 0 0 15 15;" xml:space="preserve">
<style type="text/css">
	.st0{fill:url(#SVGID_1_);}
</style>
<linearGradient id="SVGID_1_" gradientUnits="userSpaceOnUse" x1="3.9995" y1="5.4806" x2="13.0029" y2="5.4806">
	<stop  offset="4.871795e-02" style="stop-color:#FF2627"/>
	<stop  offset="0.4769" style="stop-color:#FFFFFF"/>
	<stop  offset="0.9949" style="stop-color:#0000FF"/>
</linearGradient>
<path class="st0" d="M6.7,2C5.4,2,4.5,3.4,4.1,3.8C4,3.9,4,4,4,4.1v4.4C4,8.8,4.2,9,4.4,9c0.1,0,0.2,0,0.3-0.1
	c0.5-0.6,1.2-1,1.9-1.2c1.4,0,2,1.3,3.4,1.3c1-0.1,1.9-0.5,2.7-1.1C12.9,7.8,13,7.7,13,7.5V2.5C13,2.2,12.9,2,12.6,2
	c-0.1,0-0.2,0-0.2,0c-0.7,0.5-1.5,0.9-2.3,1.1C8.6,3.1,8.1,2,6.7,2z"/>
<circle cx="2.5" cy="2" r="1"/>
<path d="M3,4v9.5C3,13.8,2.8,14,2.5,14S2,13.8,2,13.5V4c0-0.3,0.2-0.5,0.5-0.5S3,3.7,3,4z"/>
</svg>
